<svg width="14" height="10" viewBox="0 0 14 10" fill="none" xmlns="http://www.w3.org/2000/svg">
<path d="M2.7358 4.21875C2.36648 4.21875 2.02983 4.12926 1.72585 3.95028C1.42472 3.76847 1.18324 3.52557 1.00142 3.22159C0.822443 2.91761 0.732955 2.58097 0.732955 2.21165C0.732955 1.84233 0.822443 1.5071 1.00142 1.20597C1.18324 0.901989 1.42472 0.660511 1.72585 0.481534C2.02983 0.299716 2.36648 0.208807 2.7358 0.208807C3.10511 0.208807 3.44176 0.299716 3.74574 0.481534C4.04972 0.660511 4.29119 0.901989 4.47017 1.20597C4.65199 1.5071 4.7429 1.84233 4.7429 2.21165C4.7429 2.58097 4.65199 2.91761 4.47017 3.22159C4.29119 3.52557 4.04972 3.76847 3.74574 3.95028C3.44176 4.12926 3.10511 4.21875 2.7358 4.21875ZM2.7358 3.24716C2.92898 3.24716 3.10369 3.20028 3.25994 3.10653C3.41619 3.01278 3.53977 2.88778 3.63068 2.73153C3.72443 2.57528 3.77131 2.40199 3.77131 2.21165C3.77131 2.02131 3.72443 1.84801 3.63068 1.69176C3.53977 1.53551 3.41619 1.41193 3.25994 1.32102C3.10369 1.22727 2.92898 1.1804 2.7358 1.1804C2.54545 1.1804 2.37216 1.22727 2.21591 1.32102C2.05966 1.41193 1.93466 1.53551 1.84091 1.69176C1.75 1.84801 1.70455 2.02131 1.70455 2.21165C1.70455 2.40199 1.75 2.57528 1.84091 2.73153C1.93466 2.88778 2.05966 3.01278 2.21591 3.10653C2.37216 3.20028 2.54545 3.24716 2.7358 3.24716ZM13.516 3.1108H12.1864C12.1353 2.8267 12.0401 2.5767 11.9009 2.3608C11.7617 2.14489 11.5913 1.96165 11.3896 1.81108C11.1879 1.66051 10.962 1.54687 10.712 1.47017C10.4648 1.39347 10.2021 1.35511 9.92365 1.35511C9.42081 1.35511 8.97053 1.48153 8.5728 1.73438C8.17791 1.98722 7.86541 2.35795 7.6353 2.84659C7.40803 3.33523 7.29439 3.93182 7.29439 4.63636C7.29439 5.34659 7.40803 5.94602 7.6353 6.43466C7.86541 6.9233 8.17933 7.29261 8.57706 7.54261C8.97479 7.79261 9.42223 7.91761 9.91939 7.91761C10.195 7.91761 10.4563 7.88068 10.7035 7.80682C10.9535 7.73011 11.1793 7.6179 11.381 7.47017C11.5827 7.32244 11.7532 7.14205 11.8924 6.92898C12.0344 6.71307 12.1325 6.46591 12.1864 6.1875L13.516 6.19176C13.445 6.62074 13.3072 7.01562 13.1026 7.37642C12.9009 7.73438 12.641 8.04403 12.3228 8.3054C12.0075 8.56392 11.6467 8.7642 11.2404 8.90625C10.8342 9.0483 10.391 9.11932 9.91087 9.11932C9.15518 9.11932 8.48189 8.94034 7.89098 8.58239C7.30007 8.22159 6.83416 7.70597 6.49325 7.03551C6.15518 6.36506 5.98615 5.56534 5.98615 4.63636C5.98615 3.70455 6.15661 2.90483 6.49751 2.23722C6.83842 1.56676 7.30433 1.05256 7.89524 0.694602C8.48615 0.333807 9.15803 0.153409 9.91087 0.153409C10.3739 0.153409 10.8058 0.22017 11.2063 0.353693C11.6097 0.484375 11.9719 0.677557 12.293 0.933239C12.614 1.18608 12.8796 1.49574 13.0898 1.86222C13.3001 2.22585 13.4421 2.64205 13.516 3.1108Z" fill="#1E1E1E"/>
</svg>
